<svg width="375" height="566" viewBox="0 0 375 566" fill="none" xmlns="http://www.w3.org/2000/svg">
<mask id="mask0_1_110" style="mask-type:alpha" maskUnits="userSpaceOnUse" x="-93" y="0" width="566" height="566">
<path fill-rule="evenodd" clip-rule="evenodd" d="M472 283C472 438.744 345.744 565 190 565C34.2557 565 -92 438.744 -92 283C-92 127.256 34.2557 1 190 1C345.744 1 472 127.256 472 283ZM473 283C473 439.297 346.297 566 190 566C33.7034 566 -93 439.297 -93 283C-93 126.703 33.7034 0 190 0C346.297 0 473 126.703 473 283ZM381.747 283C381.747 388.899 295.899 474.747 190 474.747C84.101 474.747 -1.74712 388.899 -1.74712 283C-1.74712 177.101 84.101 91.2527 190 91.2527C295.899 91.2527 381.747 177.101 381.747 283ZM382.747 283C382.747 389.451 296.451 475.747 190 475.747C83.5488 475.747 -2.74712 389.451 -2.74712 283C-2.74712 176.549 83.5488 90.2527 190 90.2527C296.451 90.2527 382.747 176.549 382.747 283ZM190.24 391.215C249.873 391.215 298.215 342.873 298.215 283.24C298.215 223.607 249.873 175.265 190.24 175.265C130.607 175.265 82.2645 223.607 82.2645 283.24C82.2645 342.873 130.607 391.215 190.24 391.215ZM190.24 392.215C250.425 392.215 299.215 343.425 299.215 283.24C299.215 223.055 250.425 174.265 190.24 174.265C130.054 174.265 81.2645 223.055 81.2645 283.24C81.2645 343.425 130.054 392.215 190.24 392.215ZM228.126 283C228.126 304.056 211.056 321.126 190 321.126C168.944 321.126 151.874 304.056 151.874 283C151.874 261.944 168.944 244.874 190 244.874C211.056 244.874 228.126 261.944 228.126 283ZM229.126 283C229.126 304.608 211.608 322.126 190 322.126C168.392 322.126 150.874 304.608 150.874 283C150.874 261.392 168.392 243.874 190 243.874C211.608 243.874 229.126 261.392 229.126 283Z" fill="black"/>
</mask>
<g mask="url(#mask0_1_110)">
<rect x="-93" y="-52.7627" width="566" height="335.763" fill="#EBE4FF"/>
</g>
</svg>
