<svg width="300" height="185" viewBox="0 0 300 185" fill="none" xmlns="http://www.w3.org/2000/svg">
<mask id="mask0_210_83" style="mask-type:alpha" maskUnits="userSpaceOnUse" x="0" y="0" width="300" height="185">
<rect width="300" height="185" rx="10" fill="#FF5757"/>
</mask>
<g mask="url(#mask0_210_83)">
<path fill-rule="evenodd" clip-rule="evenodd" d="M389.48 388.574C354.704 443.827 302.519 484.127 243.988 501.13C187.556 517.524 130.01 499.624 74.3801 480.111C18.1519 460.389 -44.9932 443.47 -77.3115 388.434C-109.201 334.129 -87.6181 263.822 -90.7104 198.975C-94.0458 129.032 -136.285 47.8763 -96.1169 -5.91788C-55.4958 -60.3184 24.2928 -29.373 87.1134 -39.1706C136.097 -46.8102 181.776 -62.5042 230.982 -56.9329C292.665 -49.9489 364.829 -54.9389 405.9 -3.07634C447.419 49.3529 436.864 129.433 433.933 199.345C431.134 266.118 423.902 333.885 389.48 388.574Z" fill="#FFCB3C"/>
<path fill-rule="evenodd" clip-rule="evenodd" d="M-11.2946 56.3075C53.3938 49.6456 124.641 41.6826 177.155 84.3867C229.652 127.077 237.99 207.334 258.868 276.003C280.079 345.767 315.166 415.222 299.502 486.791C283.354 560.573 236.895 629.034 174.812 660.064C116.553 689.182 51.3803 655.618 -11.2946 642.13C-60.9535 631.443 -106.278 614.663 -151.685 589.8C-207.64 559.162 -279.508 543.975 -305.791 480.877C-332.493 416.773 -306.19 341.194 -282.563 275.602C-260.269 213.712 -224.465 159.883 -176.075 120.764C-127.75 81.6976 -70.7019 62.4255 -11.2946 56.3075Z" fill="#FEAA2B"/>
<path fill-rule="evenodd" clip-rule="evenodd" d="M384.102 -17.4774C442.151 -7.28536 473.021 61.0326 515.78 106.042C551.848 144.008 589.748 176.835 614.35 224.886C644.645 284.058 691.991 348.468 673.079 413.274C654.165 478.083 580.964 496.701 526.224 526.861C480.91 551.828 434.488 568.24 384.102 572.492C329.7 577.082 275.251 577.163 225.469 552.239C166.461 522.696 105.912 484.675 78.2906 419.382C49.1199 350.426 47.9814 266.332 74.8639 196.226C100.693 128.867 162.662 92.3992 218.459 53.8395C270.041 18.1931 324.178 -27.9987 384.102 -17.4774Z" fill="#FF5757"/>
</g>
</svg>
